<svg xmlns="http://www.w3.org/2000/svg" width="700" height="600" viewBox="0 0 700 600" version="1.1"><path d="M 161.250 302.745 C 166.062 302.928, 173.937 302.928, 178.750 302.745 C 183.563 302.561, 179.625 302.411, 170 302.411 C 160.375 302.411, 156.438 302.561, 161.250 302.745 M 285.750 302.750 C 321.087 302.896, 378.912 302.896, 414.250 302.750 C 449.587 302.604, 420.675 302.485, 350 302.485 C 279.325 302.485, 250.412 302.604, 285.750 302.750 M 521.250 302.745 C 526.063 302.928, 533.938 302.928, 538.750 302.745 C 543.563 302.561, 539.625 302.411, 530 302.411 C 520.375 302.411, 516.438 302.561, 521.250 302.745 M 288 463.493 L 288 478.986 220.250 479.250 L 152.500 479.514 231.250 479.757 L 310 480 310 464 L 310 448 299 448 L 288 448 288 463.493" stroke="none" fill="#7acaa6" fill-rule="evenodd"/><path d="M 288 352.567 C 288 361.345, 288.216 362.416, 290.617 365.565 C 298.114 375.394, 297.710 387.487, 289.574 396.763 C 287.333 399.317, 286.063 401.064, 286.750 400.645 C 287.730 400.047, 288 403.339, 288 415.868 C 288 430.251, 287.825 431.899, 286.250 432.311 C 285.288 432.562, 289.526 432.820, 295.668 432.884 C 301.811 432.948, 307.548 432.727, 308.418 432.393 C 309.828 431.852, 310 426.951, 310 387.393 L 310 343 299 343 L 288 343 288 352.567" stroke="none" fill="#f99b8c" fill-rule="evenodd"/><path d="M 265.913 373.282 C 261.248 376.864, 260.810 382.964, 264.923 387.077 C 268.650 390.803, 272.756 390.918, 276.923 387.411 C 283.328 382.021, 279.647 371.962, 271.295 372.032 C 269.208 372.049, 266.786 372.612, 265.913 373.282" stroke="none" fill="#fceca9" fill-rule="evenodd"/><path d="M 327.784 243.738 C 330.689 243.941, 335.189 243.939, 337.784 243.734 C 340.378 243.528, 338 243.363, 332.500 243.365 C 327 243.368, 324.878 243.536, 327.784 243.738 M 362.784 243.738 C 365.689 243.941, 370.189 243.939, 372.784 243.734 C 375.378 243.528, 373 243.363, 367.500 243.365 C 362 243.368, 359.878 243.536, 362.784 243.738 M 448.392 390 C 448.392 397.425, 448.549 400.462, 448.742 396.750 C 448.934 393.038, 448.934 386.962, 448.742 383.250 C 448.549 379.538, 448.392 382.575, 448.392 390 M 153 448.360 L 153 479 220.500 479 L 288 479 288 463.721 L 288 448.442 279.250 447.234 C 267.962 445.676, 257.746 442.477, 239.904 434.912 C 208.208 421.475, 198.561 419.123, 171.750 418.297 L 153 417.720 153 448.360 M 448.392 432 C 448.392 439.425, 448.549 442.462, 448.742 438.750 C 448.934 435.038, 448.934 428.962, 448.742 425.250 C 448.549 421.538, 448.392 424.575, 448.392 432 M 372.280 479.736 C 374.909 479.943, 378.959 479.940, 381.280 479.731 C 383.601 479.521, 381.450 479.352, 376.500 479.355 C 371.550 479.358, 369.651 479.530, 372.280 479.736 M 440.813 479.749 C 449.785 479.914, 464.185 479.914, 472.813 479.748 C 481.441 479.581, 474.100 479.446, 456.500 479.446 C 438.900 479.447, 431.841 479.583, 440.813 479.749 M 531.750 479.732 C 534.087 479.943, 537.913 479.943, 540.250 479.732 C 542.587 479.522, 540.675 479.349, 536 479.349 C 531.325 479.349, 529.413 479.522, 531.750 479.732 M 232.670 523.750 C 296.563 523.892, 401.413 523.892, 465.670 523.750 C 529.926 523.608, 477.650 523.492, 349.500 523.492 C 221.350 523.492, 168.776 523.608, 232.670 523.750" stroke="none" fill="#bae2a6" fill-rule="evenodd"/><path d="M 198.310 337.990 C 197.666 339.696, 196.040 341.414, 194.525 341.990 C 193.065 342.546, 183.124 343, 172.435 343 L 153 343 153.005 372.750 L 153.010 402.500 170.755 402.581 C 198.095 402.706, 212.620 406.139, 246.256 420.426 C 261.954 427.094, 278.220 432, 284.628 432 L 288 432 288 416.048 L 288 400.096 282.792 402.798 C 267.103 410.938, 248.425 400.831, 246.321 383.062 C 243.914 362.742, 268.313 348.426, 285.250 360.221 L 288 362.136 288 352.568 L 288 343 256.135 343 C 225.647 343, 224.158 342.912, 221.694 340.974 C 220.277 339.860, 218.836 338.060, 218.492 336.974 C 217.928 335.197, 216.946 335, 208.652 335 L 199.438 335 198.310 337.990" stroke="none" fill="#feb3a7" fill-rule="evenodd"/><path d="M 109.044 62.577 C 103.013 65.194, 98.831 69.128, 96.373 74.497 L 93.987 79.709 94.243 301.183 L 94.500 522.657 97.526 527.552 C 99.402 530.586, 102.414 533.598, 105.448 535.474 L 110.343 538.500 347.922 538.793 C 509.527 538.993, 586.648 538.755, 589.089 538.051 C 595.155 536.302, 600.912 531.385, 603.564 525.690 L 605.980 520.500 605.990 461.823 L 606 403.145 603.379 401.084 C 600.175 398.563, 596.472 399.138, 593.250 402.655 L 591 405.112 591 461.633 L 591 518.154 588.077 521.077 L 585.154 524 350 524 L 114.846 524 111.923 521.077 L 109 518.154 109 329.077 L 109 140 150.944 140 L 192.888 140 195.611 137.658 C 199.142 134.621, 199.352 129.513, 196.056 126.844 C 193.923 125.117, 191.095 125, 151.389 125 L 109 125 109 103.556 C 109 82.329, 109.024 82.083, 111.413 79.306 L 113.827 76.500 350 76.500 L 586.173 76.500 588.587 79.306 C 590.976 82.083, 591 82.329, 591 103.556 L 591 125 407.174 125 L 223.349 125 221.174 127.314 C 218.491 130.171, 218.388 134.022, 220.912 137.139 L 222.823 139.500 406.912 139.758 L 591 140.016 591 256.952 L 591 373.888 593.250 376.407 C 596.482 380.024, 599.998 380.576, 603.293 377.984 L 606 375.855 605.990 227.677 L 605.980 79.500 603.598 74.383 C 601.092 69.001, 596.839 65.084, 590.728 62.531 C 587.472 61.171, 560.627 61.004, 349.782 61.039 C 141.191 61.074, 112.082 61.260, 109.044 62.577 M 132.303 94.197 C 127.728 96.407, 127.845 105.575, 132.471 107.350 C 140.468 110.419, 146.987 100.281, 140.365 95.073 C 137.468 92.794, 135.622 92.593, 132.303 94.197 M 165.635 95.073 C 160.447 99.153, 163.434 108, 170 108 C 173.744 108, 177.003 104.599, 176.985 100.711 C 176.967 96.940, 176.278 95.709, 173.316 94.150 C 170.218 92.519, 168.640 92.709, 165.635 95.073 M 199.635 95.073 C 193.095 100.217, 199.569 110.405, 207.455 107.379 C 208.346 107.037, 209.768 105.416, 210.616 103.776 C 211.884 101.323, 211.942 100.274, 210.942 97.859 C 208.814 92.722, 204.100 91.560, 199.635 95.073 M 148.500 170.881 C 139.523 175.003, 138 179.285, 138 200.403 C 138 209.460, 138.412 217.954, 138.916 219.279 C 139.420 220.604, 141.173 222.243, 142.813 222.923 C 145.300 223.952, 146.310 223.891, 148.897 222.553 C 150.604 221.671, 152.076 220.848, 152.168 220.724 C 152.261 220.601, 152.599 212.400, 152.918 202.500 L 153.500 184.500 170.500 183.986 C 179.850 183.704, 188.322 183.080, 189.327 182.600 C 191.168 181.720, 193 178.125, 193 175.389 C 193 174.575, 191.895 172.805, 190.545 171.455 C 188.121 169.031, 187.870 169, 170.295 169.022 C 155.177 169.041, 151.898 169.320, 148.500 170.881 M 219.695 170.111 C 215.079 172.796, 215.642 180.604, 220.615 182.870 C 222.416 183.691, 257.937 184, 350.491 184 L 477.888 184 480.393 181.750 C 484.010 178.500, 484.250 174.250, 481 171 C 479.020 169.020, 477.687 169, 350.250 169.030 C 262.171 169.051, 220.930 169.393, 219.695 170.111 M 509.455 171.455 C 508.105 172.805, 507 174.575, 507 175.389 C 507 178.125, 508.832 181.720, 510.673 182.600 C 511.678 183.080, 520.150 183.704, 529.500 183.986 L 546.500 184.500 547.082 202.500 C 547.401 212.400, 547.739 220.601, 547.832 220.724 C 547.924 220.848, 549.396 221.671, 551.103 222.553 C 553.690 223.891, 554.700 223.952, 557.187 222.923 C 558.827 222.243, 560.580 220.604, 561.084 219.279 C 561.588 217.954, 562 209.460, 562 200.403 C 562 179.285, 560.477 175.003, 551.500 170.881 C 548.102 169.320, 544.823 169.041, 529.705 169.022 C 512.130 169, 511.879 169.031, 509.455 171.455 M 345.635 203.073 C 343.063 205.096, 343 205.418, 343 216.573 L 343 228 332.135 228 C 322.657 228, 320.933 228.265, 318.635 230.073 C 315.231 232.750, 315.016 238.005, 318.189 240.961 C 320.124 242.764, 321.687 243, 331.689 243 L 343 243 343 254.961 C 343 265.978, 343.173 267.083, 345.189 268.961 C 346.392 270.082, 348.557 271, 350 271 C 351.443 271, 353.608 270.082, 354.811 268.961 C 356.827 267.083, 357 265.978, 357 254.961 L 357 243 368.311 243 C 378.313 243, 379.876 242.764, 381.811 240.961 C 384.984 238.005, 384.769 232.750, 381.365 230.073 C 379.067 228.265, 377.343 228, 367.865 228 L 357 228 357 216.573 C 357 205.418, 356.937 205.096, 354.365 203.073 C 352.916 201.933, 350.952 201, 350 201 C 349.048 201, 347.084 201.933, 345.635 203.073 M 140.073 250.635 C 138.164 253.061, 138 254.585, 138.006 269.885 C 138.009 279.023, 138.454 288.095, 138.996 290.044 C 140.113 294.065, 145.128 299.360, 149.315 300.939 C 150.927 301.546, 159.978 302, 170.493 302 L 188.855 302 190.927 299.365 C 192.067 297.916, 193 295.952, 193 295 C 193 294.048, 192.067 292.084, 190.927 290.635 L 188.855 288 172.509 288 C 163.519 288, 155.452 287.727, 154.582 287.393 C 153.226 286.873, 153 284.387, 153 270.028 C 153 254.588, 152.837 253.062, 150.927 250.635 C 149.424 248.724, 147.933 248, 145.500 248 C 143.067 248, 141.576 248.724, 140.073 250.635 M 549.073 250.635 C 547.163 253.062, 547 254.588, 547 270.028 C 547 284.387, 546.774 286.873, 545.418 287.393 C 544.548 287.727, 536.481 288, 527.491 288 L 511.145 288 509.073 290.635 C 507.933 292.084, 507 294.048, 507 295 C 507 295.952, 507.933 297.916, 509.073 299.365 L 511.145 302 529.605 302 C 549.766 302, 552.504 301.440, 557.114 296.373 C 561.297 291.775, 562 287.980, 562 269.986 C 562 254.589, 561.836 253.062, 559.927 250.635 C 558.424 248.724, 556.933 248, 554.500 248 C 552.067 248, 550.576 248.724, 549.073 250.635 M 218.073 290.635 C 216.933 292.084, 216 294.048, 216 295 C 216 295.952, 216.933 297.916, 218.073 299.365 L 220.145 302 350 302 L 479.855 302 481.927 299.365 C 483.067 297.916, 484 295.952, 484 295 C 484 294.048, 483.067 292.084, 481.927 290.635 L 479.855 288 350 288 L 220.145 288 218.073 290.635 M 142.235 331.423 L 138.500 334.846 138.231 409.482 C 137.936 491.355, 137.748 488.558, 143.836 492.691 C 146.343 494.393, 151.310 494.518, 228 494.802 C 272.825 494.968, 311.498 494.815, 313.940 494.462 C 317.104 494.005, 319.330 492.870, 321.690 490.510 L 325 487.200 325 411 L 325 334.800 321.600 331.400 L 318.200 328 270.600 328 C 224.333 328, 222.944 328.056, 221 330 C 218.666 332.334, 218.395 336.790, 220.419 339.559 C 221.776 341.416, 223.749 341.522, 266.169 342 L 310.500 342.500 310.500 387.500 L 310.500 432.500 298.500 432.796 C 278.995 433.278, 269.891 431.110, 242.351 419.423 C 211.856 406.482, 196.223 403, 168.622 403 L 153 403 153 372.500 L 153 342 173.277 342 C 196.615 342, 198 341.613, 198 335.098 C 198 328.124, 197.512 328, 170.157 328 L 145.971 328 142.235 331.423 M 360.379 329.437 C 358.663 330.184, 355.963 332.492, 354.379 334.566 C 351.609 338.193, 351.488 338.818, 351.173 351.035 L 350.846 363.734 353.558 365.867 C 356.959 368.542, 359.023 368.556, 362.365 365.927 C 364.889 363.942, 365 363.445, 365 354.127 C 365 347.895, 365.431 343.969, 366.200 343.200 C 366.969 342.431, 370.895 342, 377.127 342 C 386.445 342, 386.942 341.889, 388.927 339.365 C 390.067 337.916, 391 335.952, 391 335 C 391 334.048, 390.067 332.084, 388.927 330.635 C 386.896 328.052, 386.622 328.001, 375.177 328.039 C 367.618 328.064, 362.399 328.557, 360.379 329.437 M 420.655 329.829 C 419.745 330.835, 419 333.284, 419 335.272 C 419 341.963, 419.207 342, 456.548 342 L 489.651 342 491.826 339.686 C 494.543 336.793, 494.618 332.618, 492 330 C 490.079 328.079, 488.667 328, 456.155 328 C 424.636 328, 422.196 328.126, 420.655 329.829 M 524 330 C 521.667 332.333, 521.395 336.788, 523.416 339.559 C 524.622 341.212, 526.442 341.574, 535.666 342 L 546.500 342.500 547 353.215 C 547.570 365.426, 548.614 367.400, 554.500 367.400 C 560.703 367.400, 561.500 365.615, 561.500 351.712 C 561.500 340.867, 561.254 339.104, 559.299 335.962 C 558.089 334.016, 555.328 331.428, 553.163 330.212 C 549.730 328.282, 547.746 328, 537.614 328 C 527.333 328, 525.770 328.230, 524 330 M 263.183 357.852 C 256.942 360.066, 251.811 364.692, 248.879 370.750 C 245.764 377.184, 246.484 387.014, 250.552 393.593 C 261.447 411.215, 288.760 407.560, 294.492 387.713 C 300.029 368.543, 281.869 351.224, 263.183 357.852 M 265.186 373.497 C 261.407 376.676, 260.572 380.040, 262.447 384.528 C 265.241 391.215, 273.781 392.425, 278.511 386.805 C 282.502 382.062, 281.236 375.208, 275.855 372.425 C 271.829 370.343, 268.542 370.673, 265.186 373.497 M 451.174 373.314 C 449.153 375.466, 449 376.626, 449 389.814 L 449 404 434.674 404 C 420.993 404, 420.251 404.104, 418.174 406.314 C 415.676 408.974, 415.367 412.750, 417.417 415.559 C 418.677 417.286, 420.470 417.555, 433.667 418 L 448.500 418.500 449 433.333 C 449.555 449.801, 450.066 451, 456.536 451 C 462.538 451, 463.458 448.650, 463.824 432.398 L 464.148 418 478.419 418 C 491.451 418, 492.848 417.825, 494.512 415.987 C 497.092 413.136, 496.867 408.120, 494.056 405.844 C 492.088 404.251, 489.899 404, 477.963 404 L 464.148 404 463.824 389.409 C 463.514 375.472, 463.394 374.733, 461.139 372.909 C 457.941 370.323, 453.828 370.490, 451.174 373.314 M 352.557 392.223 C 351.295 394.024, 351 397.689, 351 411.568 C 351 426.607, 351.213 428.882, 352.750 430.267 C 355.846 433.057, 359.325 433.319, 362.293 430.984 L 365 428.855 365 411.082 C 365 395.135, 364.812 393.140, 363.171 391.655 C 360.435 389.179, 354.465 389.498, 352.557 392.223 M 550.400 390.765 C 547.638 392.610, 547 396.380, 547 410.869 C 547 419.120, 547.442 427.032, 547.982 428.453 C 550.036 433.855, 559.009 433.736, 561.084 428.279 C 561.588 426.954, 562 419.120, 562 410.869 C 562 392.618, 561.069 390.031, 554.500 390.031 C 552.850 390.031, 551.005 390.361, 550.400 390.765 M 156.750 417.665 L 153 418.121 153 449.060 L 153 480 232 480 L 311 480 311 464.130 L 311 448.260 294.750 447.740 C 275.278 447.118, 265.791 444.960, 245.090 436.443 C 208.263 421.292, 197.592 418.465, 174.238 417.674 C 166.682 417.418, 158.813 417.414, 156.750 417.665 M 551.836 455.208 C 548.186 456.443, 547.667 457.991, 547.043 469.500 L 546.500 479.500 535.666 480 C 523.616 480.556, 522 481.447, 522 487.536 C 522 493.307, 524.630 494.500, 537.357 494.500 C 550.492 494.500, 554.658 492.986, 558.819 486.697 C 561.157 483.165, 561.504 481.514, 561.844 472.335 C 562.092 465.655, 561.798 460.927, 561.020 459.047 C 559.582 455.577, 555.629 453.924, 551.836 455.208 M 352.557 457.223 C 350.696 459.879, 350.340 479.127, 352.067 483.685 C 354.861 491.061, 360.580 494.152, 372.591 494.780 C 383.385 495.345, 388.669 494.001, 390.062 490.337 C 391.495 486.569, 391.217 485.126, 388.545 482.455 C 386.290 480.199, 385.334 480, 376.745 480 C 370.810 480, 366.962 479.562, 366.200 478.800 C 365.433 478.033, 365 474.123, 365 467.955 C 365 459.881, 364.702 458.040, 363.171 456.655 C 360.435 454.179, 354.465 454.498, 352.557 457.223 M 421 482 C 418.305 484.695, 418.358 490.109, 421.105 492.595 C 423.087 494.388, 425.170 494.500, 456.693 494.500 L 490.177 494.500 492.088 492.139 C 494.846 488.734, 494.547 484.576, 491.365 482.073 C 488.821 480.071, 487.600 480, 455.865 480 C 424.333 480, 422.919 480.081, 421 482" stroke="none" fill="#060606" fill-rule="evenodd"/></svg>